<svg width="19" height="22" viewBox="0 0 19 22" fill="none" xmlns="http://www.w3.org/2000/svg">
<path d="M17.1293 0C17.6831 0.154453 18.0567 0.445299 18.1707 0.946459C18.2245 1.18279 18.1868 1.4247 18.1915 1.66402C18.1964 1.9106 18.1956 2.15735 18.1913 2.40395C18.1874 2.62922 18.0419 2.76872 17.8196 2.77045C17.5924 2.77221 17.4331 2.64285 17.426 2.41774C17.414 2.03434 17.4215 1.65047 17.4194 1.2668C17.417 0.847787 17.2161 0.667547 16.7396 0.667441C12.1816 0.666429 7.62351 0.668043 3.06548 0.662957C2.83069 0.662695 2.76245 0.725239 2.76271 0.933041C2.76879 5.92089 2.76876 10.9087 2.76271 15.8966C2.76246 16.0978 2.83171 16.1492 3.05244 16.149C7.61047 16.1441 12.1685 16.1456 16.7266 16.1452C17.218 16.1451 17.4208 15.9505 17.4208 15.4868C17.4206 11.6363 17.4205 7.78581 17.4199 3.9353C17.4199 3.82539 17.4184 3.71608 17.4625 3.61079C17.5324 3.44403 17.6732 3.38171 17.8655 3.39974C18.0544 3.41745 18.1554 3.52172 18.186 3.67856C18.2004 3.75193 18.1924 3.82888 18.1924 3.90421C18.1926 7.78213 18.191 11.6601 18.1945 15.538C18.195 16.077 17.9522 16.476 17.3961 16.7113C17.2811 16.76 17.2379 16.8264 17.2378 16.9351C17.2372 17.764 17.2343 18.5929 17.2278 19.4219C17.2271 19.5234 17.2748 19.5554 17.3804 19.554C17.5352 19.5519 17.6907 19.5483 17.8449 19.5577C18.0536 19.5705 18.1719 19.6813 18.1876 19.8609C18.2037 20.0443 18.0904 20.1623 17.8932 20.2024C17.7739 20.2267 17.6472 20.2297 17.5238 20.2297C14.379 20.2303 11.2342 20.2293 8.08937 20.2285C8.02725 20.2285 7.96438 20.2343 7.90314 20.2278C7.67288 20.2037 7.5736 20.2799 7.59957 20.4936C7.62309 20.687 7.60142 20.8787 7.42107 21.0407C7.28578 21.0525 7.15996 21.0525 7.00163 21.0422C6.59826 20.9193 6.22791 20.8053 5.85588 20.6957C5.80756 20.6815 5.74505 20.676 5.69851 20.6903C5.30639 20.8108 4.89998 20.8955 4.52236 21.0525C4.39654 21.0525 4.27072 21.0525 4.11678 21.0393C3.90853 20.8585 3.91881 20.6528 3.94439 20.4463C3.96415 20.2867 3.89327 20.225 3.70868 20.2288C3.32072 20.2367 2.93234 20.2268 2.54421 20.2307C0.89747 20.247 0.0610848 19.1028 0.0666937 18.0315C0.0946318 12.6953 0.0783486 7.35882 0.0809757 2.02245C0.0813278 1.30693 0.431363 0.745263 1.08973 0.330838C1.33982 0.173411 1.63323 0.100257 1.91273 0C6.97764 0 12.0425 0 17.1293 0ZM15.0774 19.5547C15.4575 19.5495 15.8386 19.5291 16.2175 19.5455C16.415 19.554 16.4568 19.4997 16.4558 19.3433C16.4509 18.6034 16.4556 17.8635 16.4558 17.1236C16.4559 16.8279 16.4546 16.8275 16.1214 16.8275C11.7346 16.8275 7.34779 16.8276 2.96099 16.8278C2.73583 16.8278 2.51052 16.8245 2.28554 16.8305C1.57093 16.8495 0.917417 17.4078 0.855428 18.0275C0.77165 18.8649 1.45668 19.4204 2.07918 19.5107C2.68589 19.5988 3.29862 19.5058 3.93884 19.5455C3.93884 19.2246 3.93731 18.9318 3.93965 18.6391C3.94049 18.534 3.87266 18.5171 3.77384 18.5177C3.47882 18.5194 3.18362 18.5218 2.88878 18.5147C2.62447 18.5082 2.48182 18.3664 2.50183 18.1466C2.52021 17.9448 2.68442 17.8358 2.99016 17.8356C4.83029 17.8342 6.67042 17.8348 8.51054 17.8351C8.55705 17.8351 8.60405 17.8352 8.65 17.8406C8.89891 17.8701 9.04884 18.0147 9.03208 18.2068C9.01622 18.3885 8.85377 18.5122 8.61382 18.516C8.35768 18.5201 8.10079 18.5269 7.84537 18.5143C7.64436 18.5045 7.58595 18.577 7.59835 18.7427C7.6111 18.9133 7.60164 19.0851 7.60183 19.2564C7.60216 19.5554 7.60214 19.5556 7.94977 19.5555C10.3101 19.5553 12.6704 19.555 15.0774 19.5547ZM0.853721 15.6455C0.853721 15.9554 0.853721 16.2653 0.853721 16.6284C1.17677 16.4362 1.44431 16.2812 1.75785 16.2228C1.94543 16.1878 2.00005 16.1056 1.99857 15.9398C1.99056 15.0437 1.99635 14.1476 1.99546 13.2515C1.9954 13.1928 2.01546 13.1273 1.9564 13.0784C1.40548 13.142 0.870382 13.7053 0.857679 14.2499C0.847152 14.7012 0.854382 15.1529 0.853721 15.6455ZM5.57093 18.5179C5.37708 18.5177 5.18234 18.5277 4.98962 18.5146C4.78107 18.5004 4.69906 18.5585 4.70613 18.7539C4.72095 19.164 4.70868 19.5748 4.71224 19.9853C4.71292 20.0636 4.68328 20.1491 4.78508 20.258C5.43416 19.9034 6.11587 19.9444 6.77705 20.2658C6.81056 20.1997 6.82765 20.1817 6.82776 20.1635C6.83072 19.6641 6.83065 19.1648 6.83442 18.6654C6.83534 18.5436 6.75896 18.5168 6.64103 18.5175C6.29987 18.5196 5.95869 18.518 5.57093 18.5179ZM0.855713 1.9265C0.855713 2.55766 0.855713 3.18883 0.855713 3.87682C1.18081 3.671 1.46537 3.5158 1.79256 3.4542C1.96154 3.42239 1.99759 3.34654 1.99686 3.21189C1.99277 2.46011 1.99647 1.7083 1.99476 0.95651C1.99426 0.737987 1.92396 0.700047 1.6993 0.805559C1.20703 1.03676 0.919071 1.39556 0.855713 1.9265ZM1.98671 7.1508C1.92934 7.07278 1.86032 7.12564 1.80224 7.14396C1.27923 7.30897 0.86646 7.81715 0.857121 8.31353C0.850297 8.67626 0.85418 9.03914 0.853448 9.40195C0.853192 9.52873 0.853407 9.65551 0.853407 9.8492C1.19879 9.59601 1.53399 9.46418 1.89451 9.37905C2.01431 9.35077 1.9947 9.25326 1.99473 9.17284C1.99497 8.50884 1.99395 7.84484 1.98671 7.1508ZM0.972958 12.7409C1.21652 12.5784 1.48211 12.4514 1.78084 12.3931C1.94978 12.3601 2.00014 12.284 1.99852 12.1366C1.99159 11.5079 1.99697 10.8791 1.99602 10.2503C1.99594 10.1981 2.01397 10.1407 1.96607 10.0951C1.43301 10.1629 0.892158 10.6825 0.863661 11.1988C0.836558 11.6898 0.853724 12.1827 0.853962 12.6748C0.853985 12.7224 0.836655 12.8027 0.972958 12.7409ZM1.96654 4.15646C1.88357 4.11036 1.81608 4.16249 1.75026 4.18955C1.31715 4.36756 1.00342 4.65604 0.910694 5.06809C0.784794 5.62759 0.85631 6.19883 0.872367 6.7654C0.872617 6.77422 0.893839 6.78259 0.923016 6.80448C1.21696 6.62344 1.53742 6.4741 1.89687 6.4018C1.98509 6.38406 1.99375 6.32211 1.9935 6.25782C1.99083 5.56614 1.98773 4.87446 1.96654 4.15646Z" fill="white"/>
<path d="M11.4368 5.46699C11.4376 5.90397 11.4373 5.91186 11.9126 5.92658C12.4089 5.94196 12.9059 5.93936 13.4026 5.9459C13.7194 5.95008 13.8551 6.06697 13.857 6.34682C13.8604 6.86061 13.8604 7.37445 13.8577 7.88824C13.8561 8.18724 13.7134 8.31526 13.3765 8.31732C12.8175 8.32075 12.2583 8.32497 11.6995 8.31534C11.4955 8.31183 11.4315 8.37147 11.4324 8.55137C11.4394 9.87355 11.4363 11.1958 11.4361 12.518C11.4361 12.891 11.3205 12.9966 10.9018 12.9979C10.3584 12.9997 9.81484 12.9996 9.27136 12.9968C8.8945 12.9948 8.75058 12.8683 8.75005 12.5348C8.74798 11.2126 8.74436 9.89041 8.7532 8.56826C8.75453 8.36913 8.68704 8.30902 8.46335 8.31421C7.92023 8.32682 7.37647 8.31987 6.83299 8.31709C6.49963 8.31539 6.34327 8.19084 6.33748 7.89433C6.3273 7.37384 6.32774 6.85296 6.33821 6.33246C6.34368 6.06075 6.48491 5.94974 6.79066 5.94692C7.37287 5.94155 7.95523 5.93394 8.5373 5.94125C8.70942 5.94341 8.75147 5.88847 8.75007 5.75141C8.74503 5.25819 8.74702 4.76491 8.74894 4.27166C8.75027 3.9298 8.88273 3.81143 9.26324 3.81063C9.83002 3.80944 10.3968 3.80898 10.9636 3.81092C11.3137 3.81212 11.4352 3.92209 11.4363 4.23419C11.4376 4.63837 11.4367 5.04256 11.4368 5.46699ZM13.0842 7.33378C13.0841 7.1763 13.0703 7.01763 13.0874 6.86163C13.1092 6.66379 13.0096 6.61551 12.8054 6.61914C12.3244 6.62768 11.8431 6.62187 11.362 6.62066C10.7652 6.61916 10.6683 6.53434 10.6681 6.0156C10.668 5.5842 10.6602 5.15262 10.6723 4.72149C10.6774 4.53903 10.6041 4.4776 10.4022 4.48925C10.1858 4.50173 9.96738 4.49908 9.75063 4.48942C9.57989 4.48182 9.51755 4.53452 9.52039 4.6887C9.52896 5.15422 9.52344 5.61993 9.52319 6.08557C9.52295 6.51398 9.40563 6.61968 8.92009 6.62095C8.41565 6.62227 7.91095 6.62825 7.40689 6.61575C7.18216 6.61018 7.07355 6.65785 7.0978 6.87661C7.11736 7.05296 7.11467 7.23328 7.09822 7.41012C7.08068 7.59862 7.17145 7.64197 7.36807 7.63848C7.91109 7.62885 8.45448 7.6342 8.99772 7.63532C9.39146 7.63612 9.52245 7.75376 9.52275 8.10728C9.52357 9.08649 9.52304 10.0657 9.52302 11.0449C9.52301 11.4078 9.52819 11.7708 9.52026 12.1336C9.51712 12.2774 9.57716 12.3299 9.73797 12.3232C9.9393 12.3149 10.1414 12.3215 10.3432 12.3213C10.6695 12.3211 10.6692 12.321 10.6692 12.0245C10.6692 10.7235 10.6676 9.42244 10.6707 8.1214C10.6717 7.74561 10.8049 7.63529 11.2322 7.63481C11.7521 7.63423 12.2725 7.62382 12.7919 7.63966C13.0322 7.647 13.1227 7.57813 13.0842 7.33378Z" fill="white"/>
</svg>
